{"title":"The Nun (2018) 720p HC HDRip x264 Dual Audio [Hindi - English]","magnet":"magnet:?xt=urn:btih:04d0b04cce7416ff42480c6ab575873f66fdcf4c&dn=The+Nun+%282018%29+720p+HC+HDRip+x264+Dual+Audio+%5BHindi+-+English%5D&tr=udp%3A%2F%2Ftracker.leechers-paradise.org%3A6969&tr=udp%3A%2F%2Fzer0day.ch%3A1337&tr=udp%3A%2F%2Fopen.demonii.com%3A1337&tr=udp%3A%2F%2Ftracker.coppersurfer.tk%3A6969&tr=udp%3A%2F%2Fexodus.desync.com%3A6969","uploader":"rascal_69","categoryP":"video","categoryS":"hd___movies","size":"974769364","seeders":"13","leechers":"41","description":"The Nun (2018) 720p HC HDRip x264 Dual Audio [Hindi - English] [FOX] <a href=\"\nhttps://www.imdb.com/title/tt5814060/\" rel=\"nofollow\" target=\"_NEW\">\nhttps://www.imdb.com/title/tt5814060/</a>\r\n\r\nA priest with a haunted past and a novice on the threshold of her final vows are sent by the Vatican to investigate the death of a young nun in Romania and confront a malevolent force in the form of a demonic nun.\r\nDirector: Corin Hardy\r\nWriters: Gary Dauberman (screenplay by), James Wan (story by)\r\nStars: Demi&#xE1;n Bichir, Taissa Farmiga, Jonas Bloquet\r\n\r\nGeneral\r\nFormat : Matroska\r\nFormat version : Version 4 / Version 2\r\nFile size : 1.72 GiB\r\nDuration : 1 h 36 min\r\nOverall bit rate : 2 556 kb/s\r\n\r\nVideo\r\nID : 1\r\nFormat : AVC\r\nFormat/Info : Advanced Video Codec\r\nFormat profile : High@L4.1\r\nFormat settings : CABAC / 4 Ref Frames\r\nFormat settings, CABAC : Yes\r\nFormat settings, RefFrames : 4 frames\r\nCodec ID : V_MPEG4/ISO/AVC\r\nDuration : 1 h 36 min\r\nBit rate : 2 200 kb/s\r\nWidth : 1 920 pixels\r\nHeight : 800 pixels\r\nDisplay aspect ratio : 2.40:1\r\nFrame rate mode : Constant\r\nFrame rate : 30.000 FPS\r\nColor space : YUV\r\nChroma subsampling : 4:2:0\r\nBit depth : 8 bits\r\nScan type : Progressive\r\nBits/(Pixel*Frame) : 0.048\r\nStream size : 1.46 GiB (85%)\r\nWriting library : x264 core 155 r2901 7d0ff22\r\nDefault : Yes\r\nForced : No\r\n\r\nAudio #1\r\nID : 2\r\nFormat : AAC\r\nFormat/Info : Advanced Audio Codec\r\nFormat profile : LC\r\nCodec ID : A_AAC-2\r\nDuration : 1 h 36 min\r\nBit rate : 128 kb/s\r\nChannel(s) : 2 channels\r\nChannel positions : Front: L R\r\nSampling rate : 48.0 kHz\r\nFrame rate : 46.875 FPS (1024 SPF)\r\nCompression mode : Lossy\r\nStream size : 88.2 MiB (5%)\r\nLanguage : Hindi\r\nDefault : Yes\r\nForced : No\r\n\r\nAudio #2\r\nID : 3\r\nFormat : AAC\r\nFormat/Info : Advanced Audio Codec\r\nFormat profile : LC\r\nCodec ID : A_AAC-2\r\nDuration : 1 h 36 min\r\nBit rate : 256 kb/s\r\nChannel(s) : 2 channels\r\nChannel positions : Front: L R\r\nSampling rate : 48.0 kHz\r\nFrame rate : 46.875 FPS (1024 SPF)\r\nCompression mode : Lossy\r\nStream size : 176 MiB (10%)\r\nLanguage : English\r\nDefault : No\r\nForced : No \r\n\r\nCOVER  <a href=\" http://imgbid.com/image/3c0L\" rel=\"nofollow\" target=\"_NEW\"> http://imgbid.com/image/3c0L</a>\r\n\r\nSCREENS: <a href=\"\nhttp://imgbid.com/image/dAcj\" rel=\"nofollow\" target=\"_NEW\">\nhttp://imgbid.com/image/dAcj</a>\r\n  <a href=\"\nhttp://imgbid.com/image/dRWk\" rel=\"nofollow\" target=\"_NEW\">\nhttp://imgbid.com/image/dRWk</a>\r\n  <a href=\"\nhttp://imgbid.com/image/dcqw\" rel=\"nofollow\" target=\"_NEW\">\nhttp://imgbid.com/image/dcqw</a>\r\n  <a href=\"\nhttp://imgbid.com/image/d4p5\" rel=\"nofollow\" target=\"_NEW\">\nhttp://imgbid.com/image/d4p5</a>\r\n  <a href=\"\nhttp://imgbid.com/image/dgbx\" rel=\"nofollow\" target=\"_NEW\">\nhttp://imgbid.com/image/dgbx</a>\r\n  <a href=\"\nhttp://imgbid.com/image/d3hu\" rel=\"nofollow\" target=\"_NEW\">\nhttp://imgbid.com/image/d3hu</a>\r\n  <a href=\"\nhttp://imgbid.com/image/dTj9\" rel=\"nofollow\" target=\"_NEW\">\nhttp://imgbid.com/image/dTj9</a>\r\n  <a href=\"\nhttp://imgbid.com/image/dyyY\" rel=\"nofollow\" target=\"_NEW\">\nhttp://imgbid.com/image/dyyY</a>","last_updated":"2018-10-31T12:05:48.187Z","parsed":{"xt":"urn:btih:04d0b04cce7416ff42480c6ab575873f66fdcf4c","dn":"The Nun (2018) 720p HC HDRip x264 Dual Audio [Hindi - English]","tr":["udp://exodus.desync.com:6969","udp://open.demonii.com:1337","udp://tracker.coppersurfer.tk:6969","udp://tracker.leechers-paradise.org:6969","udp://zer0day.ch:1337"],"infoHash":"04d0b04cce7416ff42480c6ab575873f66fdcf4c","infoHashBuffer":{"type":"Buffer","data":[4,208,176,76,206,116,22,255,66,72,12,106,181,117,135,63,102,253,207,76]},"name":"The Nun (2018) 720p HC HDRip x264 Dual Audio [Hindi - English]","announce":["udp://exodus.desync.com:6969","udp://open.demonii.com:1337","udp://tracker.coppersurfer.tk:6969","udp://tracker.leechers-paradise.org:6969","udp://zer0day.ch:1337"],"urlList":[]}}